<svg width="242" height="32" viewBox="0 0 242 32" fill="none" xmlns="http://www.w3.org/2000/svg">
<g clip-path="url(#clip0_4326_5258)">
<path d="M0 30.55V1.15H13.51V20.73H37.59V30.55H0Z" fill="white"/>
<path d="M66.7207 19.6L62.9307 11.05H62.6807L58.1907 19.25L66.7207 19.6ZM70.7207 27.13H54.5707L52.8907 30.55H38.2207L53.4807 1.15H71.8807L87.0007 30.55H72.4007L70.7207 27.13Z" fill="white"/>
<path d="M130.68 1.15V30.55H114.84L101.3 15.24H100.97V30.55H88.2305V1.15H104.23L117.61 16.25H117.94V1.15H130.68Z" fill="white"/>
<path d="M147.101 10.29V21.41H155.351C159.181 21.41 161.651 19.8 161.651 15.85C161.651 11.9 159.181 10.29 155.351 10.29H147.101ZM176.411 15.85C176.411 26.55 170.831 30.54 159.641 30.54H133.641V1.17H159.641C170.831 1.17 176.411 5.17 176.411 15.85Z" fill="white"/>
<path d="M191.169 1.16H179.699V30.53H191.169V1.16Z" fill="white"/>
<path d="M227 15.85C227 11.71 224 9.38 218.36 9.38C212.72 9.38 209.72 11.71 209.72 15.85C209.72 19.99 212.72 22.32 218.36 22.32C224 22.32 227 20 227 15.85ZM241.76 15.85C241.76 26.72 234.32 31.7 218.36 31.7C202.4 31.7 195 26.72 195 15.85C195 4.98 202.4 0 218.35 0C234.3 0 241.75 5 241.75 15.85" fill="white"/>
</g>
<defs>
<clipPath id="clip0_4326_5258">
<rect width="241.75" height="31.7" fill="white"/>
</clipPath>
</defs>
</svg>
