<?xml version="1.0" encoding="utf-8"?>
<!-- Generator: Adobe Illustrator 24.1.2, SVG Export Plug-In . SVG Version: 6.00 Build 0)  -->
<svg version="1.1" id="Layer_1" xmlns="http://www.w3.org/2000/svg" xmlns:xlink="http://www.w3.org/1999/xlink" x="0px" y="0px"
	 viewBox="0 0 406.1 486.2" style="enable-background:new 0 0 406.1 486.2;" xml:space="preserve">
<style type="text/css">
	.st0{fill-rule:evenodd;clip-rule:evenodd;fill:#FFFFFF;}
</style>
<path class="st0" d="M376.5,128h-82.3V51.1c0-28.1-23-51.1-51.1-51.1h-192C23,0,0,23,0,51.1v384c0,28.1,23,51.1,51.1,51.1h192
	c28.1,0,51.1-23,51.1-51.1V306.2h82.3c16.3,0,29.6-13.3,29.6-29.6v-119C406.1,141.3,392.8,128,376.5,128z M16.9,51.1
	c0-18.8,15.4-34.2,34.2-34.2h192c18.8,0,34.2,15.4,34.2,34.2v22.1H16.9V51.1z M277.3,435.1c0,18.8-15.4,34.2-34.2,34.2h-192
	c-18.8,0-34.2-15.4-34.2-34.2v-27.7h260.4V435.1z M277.3,390.4H16.9V90.2h260.4V128h-86.8c-16.3,0-29.6,13.3-29.6,29.6v119
	c0,16.3,13.3,29.6,29.6,29.6h12.4l0,28.8c-0.4,6.4,6.3,10.9,12.2,8l62.2-30.8V390.4z M389.2,276.6c0,7-5.7,12.7-12.7,12.7h-89.1
	c-1.6,0-3,0.4-4.3,1.2l-63.3,31.4l0-24.1c0-4.7-3.8-8.4-8.4-8.5h-20.8c-7,0-12.7-5.7-12.7-12.7v-119c0-7,5.7-12.7,12.7-12.7h186
	c7,0,12.7,5.7,12.7,12.7V276.6z M334.7,195.1c0,4.7-3.8,8.5-8.5,8.5h-85.3c-4.7,0-8.5-3.8-8.5-8.5c0-4.7,3.8-8.5,8.5-8.5h85.3
	C330.9,186.6,334.7,190.4,334.7,195.1z M334.7,239.1c0,4.7-3.8,8.5-8.5,8.5h-85.3c-4.7,0-8.5-3.8-8.5-8.5c0-4.7,3.8-8.5,8.5-8.5
	h85.3C330.9,230.7,334.7,234.5,334.7,239.1z M131.9,436.5c0-8.4,6.8-15.2,15.2-15.2s15.2,6.8,15.2,15.2c0,8.4-6.8,15.2-15.2,15.2
	S131.9,444.9,131.9,436.5z"/>
</svg>
