<?xml version="1.0" encoding="utf-8"?>
<!-- Generated by IcoMoon.io -->
<!DOCTYPE svg PUBLIC "-//W3C//DTD SVG 1.1//EN" "http://www.w3.org/Graphics/SVG/1.1/DTD/svg11.dtd">
<svg version="1.1" xmlns="http://www.w3.org/2000/svg" xmlns:xlink="http://www.w3.org/1999/xlink" width="38" height="48" viewBox="0 0 38 48">
<path fill="#fff" d="M37.714 33.214q0 0.723-0.268 1.888t-0.563 1.835q-0.563 1.339-3.268 2.839-2.518 1.366-4.982 1.366-0.723 0-1.406-0.094t-1.54-0.335-1.272-0.388-1.487-0.549-1.313-0.482q-2.625-0.938-4.688-2.223-3.429-2.116-7.085-5.772t-5.772-7.085q-1.286-2.063-2.223-4.688-0.080-0.241-0.482-1.313t-0.549-1.487-0.388-1.272-0.335-1.54-0.094-1.406q0-2.464 1.366-4.982 1.5-2.705 2.839-3.268 0.67-0.295 1.835-0.563t1.888-0.268q0.375 0 0.563 0.080 0.482 0.161 1.42 2.036 0.295 0.509 0.804 1.446t0.938 1.701 0.83 1.433q0.080 0.107 0.469 0.67t0.576 0.951 0.188 0.763q0 0.536-0.763 1.339t-1.661 1.473-1.661 1.42-0.763 1.232q0 0.241 0.134 0.603t0.228 0.549 0.375 0.643 0.308 0.509q2.036 3.67 4.661 6.295t6.295 4.661q0.054 0.027 0.509 0.308t0.643 0.375 0.549 0.228 0.603 0.134q0.482 0 1.232-0.763t1.42-1.661 1.473-1.661 1.339-0.763q0.375 0 0.763 0.188t0.951 0.576 0.67 0.469q0.67 0.402 1.433 0.83t1.701 0.938 1.446 0.804q1.875 0.938 2.036 1.42 0.080 0.188 0.080 0.563z"></path>
</svg>
